<?xml version="1.0" encoding="UTF-8"?>
<svg xmlns="http://www.w3.org/2000/svg" version="1.1" width="150" height="150" viewBox="0 0 150 150"><rect x="0" y="0" width="150" height="150" fill="#000000"/><g transform="scale(7.143)"><g transform="translate(0,0)"><path fill-rule="evenodd" d="M8 0.25L8 0.75A0.25 0.25 0 0 0 8.25 1L8.75 1A0.25 0.25 0 0 0 9 0.75L9 0.25A0.25 0.25 0 0 0 8.75 0L8.25 0A0.25 0.25 0 0 0 8 0.25ZM10 0.25L10 1.75A0.25 0.25 0 0 1 9.75 2L8.25 2A0.25 0.25 0 0 0 8 2.25L8 4.75A0.25 0.25 0 0 0 8.25 5L8.75 5A0.25 0.25 0 0 1 9 5.25L9 5.75A0.25 0.25 0 0 1 8.75 6L8.25 6A0.25 0.25 0 0 0 8 6.25L8 6.75A0.25 0.25 0 0 0 8.25 7L8.75 7A0.25 0.25 0 0 0 9 6.75L9 6.25A0.25 0.25 0 0 1 9.25 6L9.75 6A0.25 0.25 0 0 1 10 6.25L10 6.75A0.25 0.25 0 0 0 10.25 7L10.75 7A0.25 0.25 0 0 1 11 7.25L11 7.75A0.25 0.25 0 0 1 10.75 8L8.25 8A0.25 0.25 0 0 0 8 8.25L8 9.75A0.25 0.25 0 0 1 7.75 10L5.25 10A0.25 0.25 0 0 1 5 9.75L5 9.25A0.25 0.25 0 0 0 4.75 9L4.25 9A0.25 0.25 0 0 1 4 8.75L4 8.25A0.25 0.25 0 0 0 3.75 8L0.25 8A0.25 0.25 0 0 0 0 8.25L0 8.75A0.25 0.25 0 0 0 0.25 9L2.75 9A0.25 0.25 0 0 1 3 9.25L3 9.75A0.25 0.25 0 0 0 3.25 10L3.75 10A0.25 0.25 0 0 1 4 10.25L4 10.75A0.25 0.25 0 0 0 4.25 11L7.75 11A0.25 0.25 0 0 1 8 11.25L8 11.75A0.25 0.25 0 0 0 8.25 12L8.75 12A0.25 0.25 0 0 1 9 12.25L9 12.75A0.25 0.25 0 0 1 8.75 13L8.25 13A0.25 0.25 0 0 0 8 13.25L8 13.75A0.25 0.25 0 0 0 8.25 14L8.75 14A0.25 0.25 0 0 0 9 13.75L9 13.25A0.25 0.25 0 0 1 9.25 13L9.75 13A0.25 0.25 0 0 1 10 13.25L10 14.75A0.25 0.25 0 0 0 10.25 15L12.75 15A0.25 0.25 0 0 0 13 14.75L13 14.25A0.25 0.25 0 0 0 12.75 14L12.25 14A0.25 0.25 0 0 1 12 13.75L12 13.25A0.25 0.25 0 0 1 12.25 13L12.75 13A0.25 0.25 0 0 0 13 12.75L13 12.25A0.25 0.25 0 0 0 12.75 12L12.25 12A0.25 0.25 0 0 1 12 11.75L12 10.25A0.25 0.25 0 0 1 12.25 10L14.75 10A0.25 0.25 0 0 0 15 9.75L15 9.25A0.25 0.25 0 0 0 14.75 9L14.25 9A0.25 0.25 0 0 1 14 8.75L14 8.25A0.25 0.25 0 0 0 13.75 8L13.25 8A0.25 0.25 0 0 1 13 7.75L13 5.25A0.25 0.25 0 0 0 12.75 5L12.25 5A0.25 0.25 0 0 1 12 4.75L12 4.25A0.25 0.25 0 0 1 12.25 4L12.75 4A0.25 0.25 0 0 0 13 3.75L13 3.25A0.25 0.25 0 0 0 12.75 3L12.25 3A0.25 0.25 0 0 1 12 2.75L12 1.25A0.25 0.25 0 0 1 12.25 1L12.75 1A0.25 0.25 0 0 0 13 0.75L13 0.25A0.25 0.25 0 0 0 12.75 0L10.25 0A0.25 0.25 0 0 0 10 0.25ZM10 2.25L10 3.75A0.25 0.25 0 0 1 9.75 4L9.25 4A0.25 0.25 0 0 0 9 4.25L9 4.75A0.25 0.25 0 0 0 9.25 5L10.75 5A0.25 0.25 0 0 0 11 4.75L11 4.25A0.25 0.25 0 0 1 11.25 4L11.75 4A0.25 0.25 0 0 0 12 3.75L12 3.25A0.25 0.25 0 0 0 11.75 3L11.25 3A0.25 0.25 0 0 1 11 2.75L11 2.25A0.25 0.25 0 0 0 10.75 2L10.25 2A0.25 0.25 0 0 0 10 2.25ZM11 6.25L11 6.75A0.25 0.25 0 0 0 11.25 7L11.75 7A0.25 0.25 0 0 0 12 6.75L12 6.25A0.25 0.25 0 0 0 11.75 6L11.25 6A0.25 0.25 0 0 0 11 6.25ZM6 8.25L6 8.75A0.25 0.25 0 0 0 6.25 9L6.75 9A0.25 0.25 0 0 0 7 8.75L7 8.25A0.25 0.25 0 0 0 6.75 8L6.25 8A0.25 0.25 0 0 0 6 8.25ZM16 8.25L16 8.75A0.25 0.25 0 0 0 16.25 9L16.75 9A0.25 0.25 0 0 1 17 9.25L17 10.75A0.25 0.25 0 0 1 16.75 11L14.25 11A0.25 0.25 0 0 0 14 11.25L14 11.75A0.25 0.25 0 0 0 14.25 12L14.75 12A0.25 0.25 0 0 1 15 12.25L15 12.75A0.25 0.25 0 0 1 14.75 13L14.25 13A0.25 0.25 0 0 0 14 13.25L14 13.75A0.25 0.25 0 0 0 14.25 14L14.75 14A0.25 0.25 0 0 1 15 14.25L15 15.75A0.25 0.25 0 0 1 14.75 16L12.25 16A0.25 0.25 0 0 0 12 16.25L12 16.75A0.25 0.25 0 0 1 11.75 17L11.25 17A0.25 0.25 0 0 1 11 16.75L11 16.25A0.25 0.25 0 0 0 10.75 16L10.25 16A0.25 0.25 0 0 0 10 16.25L10 16.75A0.25 0.25 0 0 1 9.75 17L8.25 17A0.25 0.25 0 0 0 8 17.25L8 20.75A0.25 0.25 0 0 0 8.25 21L10.75 21A0.25 0.25 0 0 0 11 20.75L11 19.25A0.25 0.25 0 0 0 10.75 19L10.25 19A0.25 0.25 0 0 1 10 18.75L10 17.25A0.25 0.25 0 0 1 10.25 17L10.75 17A0.25 0.25 0 0 1 11 17.25L11 17.75A0.25 0.25 0 0 0 11.25 18L11.75 18A0.25 0.25 0 0 1 12 18.25L12 18.75A0.25 0.25 0 0 0 12.25 19L12.75 19A0.25 0.25 0 0 1 13 19.25L13 20.75A0.25 0.25 0 0 0 13.25 21L13.75 21A0.25 0.25 0 0 0 14 20.75L14 19.25A0.25 0.25 0 0 1 14.25 19L14.75 19A0.25 0.25 0 0 1 15 19.25L15 19.75A0.25 0.25 0 0 0 15.25 20L15.75 20A0.25 0.25 0 0 1 16 20.25L16 20.75A0.25 0.25 0 0 0 16.25 21L16.75 21A0.25 0.25 0 0 0 17 20.75L17 20.25A0.25 0.25 0 0 0 16.75 20L16.25 20A0.25 0.25 0 0 1 16 19.75L16 18.25A0.25 0.25 0 0 1 16.25 18L19.75 18A0.25 0.25 0 0 0 20 17.75L20 17.25A0.25 0.25 0 0 1 20.25 17L20.75 17A0.25 0.25 0 0 0 21 16.75L21 16.25A0.25 0.25 0 0 0 20.75 16L20.25 16A0.25 0.25 0 0 0 20 16.25L20 16.75A0.25 0.25 0 0 1 19.75 17L17.25 17A0.25 0.25 0 0 1 17 16.75L17 15.25A0.25 0.25 0 0 1 17.25 15L17.75 15A0.25 0.25 0 0 1 18 15.25L18 15.75A0.25 0.25 0 0 0 18.25 16L18.75 16A0.25 0.25 0 0 0 19 15.75L19 15.25A0.25 0.25 0 0 0 18.75 15L18.25 15A0.25 0.25 0 0 1 18 14.75L18 13.25A0.25 0.25 0 0 1 18.25 13L18.75 13A0.25 0.25 0 0 1 19 13.25L19 13.75A0.25 0.25 0 0 0 19.25 14L20.75 14A0.25 0.25 0 0 0 21 13.75L21 12.25A0.25 0.25 0 0 0 20.75 12L20.25 12A0.25 0.25 0 0 1 20 11.75L20 11.25A0.25 0.25 0 0 1 20.25 11L20.75 11A0.25 0.25 0 0 0 21 10.75L21 10.25A0.25 0.25 0 0 0 20.75 10L20.25 10A0.25 0.25 0 0 0 20 10.25L20 10.75A0.25 0.25 0 0 1 19.75 11L19.25 11A0.25 0.25 0 0 1 19 10.75L19 10.25A0.25 0.25 0 0 0 18.75 10L18.25 10A0.25 0.25 0 0 1 18 9.75L18 9.25A0.25 0.25 0 0 1 18.25 9L18.75 9A0.25 0.25 0 0 0 19 8.75L19 8.25A0.25 0.25 0 0 0 18.75 8L16.25 8A0.25 0.25 0 0 0 16 8.25ZM20 8.25L20 8.75A0.25 0.25 0 0 0 20.25 9L20.75 9A0.25 0.25 0 0 0 21 8.75L21 8.25A0.25 0.25 0 0 0 20.75 8L20.25 8A0.25 0.25 0 0 0 20 8.25ZM9 9.25L9 9.75A0.25 0.25 0 0 0 9.25 10L9.75 10A0.25 0.25 0 0 1 10 10.25L10 10.75A0.25 0.25 0 0 0 10.25 11L10.75 11A0.25 0.25 0 0 0 11 10.75L11 9.25A0.25 0.25 0 0 0 10.75 9L9.25 9A0.25 0.25 0 0 0 9 9.25ZM1 10.25L1 10.75A0.25 0.25 0 0 0 1.25 11L1.75 11A0.25 0.25 0 0 0 2 10.75L2 10.25A0.25 0.25 0 0 0 1.75 10L1.25 10A0.25 0.25 0 0 0 1 10.25ZM2 12.25L2 12.75A0.25 0.25 0 0 0 2.25 13L2.75 13A0.25 0.25 0 0 0 3 12.75L3 12.25A0.25 0.25 0 0 0 2.75 12L2.25 12A0.25 0.25 0 0 0 2 12.25ZM4 12.25L4 12.75A0.25 0.25 0 0 0 4.25 13L4.75 13A0.25 0.25 0 0 0 5 12.75L5 12.25A0.25 0.25 0 0 0 4.75 12L4.25 12A0.25 0.25 0 0 0 4 12.25ZM6 12.25L6 12.75A0.25 0.25 0 0 0 6.25 13L6.75 13A0.25 0.25 0 0 0 7 12.75L7 12.25A0.25 0.25 0 0 0 6.75 12L6.25 12A0.25 0.25 0 0 0 6 12.25ZM10 12.25L10 12.75A0.25 0.25 0 0 0 10.25 13L11.75 13A0.25 0.25 0 0 0 12 12.75L12 12.25A0.25 0.25 0 0 0 11.75 12L10.25 12A0.25 0.25 0 0 0 10 12.25ZM16 12.25L16 12.75A0.25 0.25 0 0 1 15.75 13L15.25 13A0.25 0.25 0 0 0 15 13.25L15 13.75A0.25 0.25 0 0 0 15.25 14L15.75 14A0.25 0.25 0 0 1 16 14.25L16 14.75A0.25 0.25 0 0 0 16.25 15L16.75 15A0.25 0.25 0 0 0 17 14.75L17 13.25A0.25 0.25 0 0 1 17.25 13L17.75 13A0.25 0.25 0 0 0 18 12.75L18 12.25A0.25 0.25 0 0 0 17.75 12L16.25 12A0.25 0.25 0 0 0 16 12.25ZM12 17.25L12 17.75A0.25 0.25 0 0 0 12.25 18L12.75 18A0.25 0.25 0 0 1 13 18.25L13 18.75A0.25 0.25 0 0 0 13.25 19L13.75 19A0.25 0.25 0 0 0 14 18.75L14 17.25A0.25 0.25 0 0 0 13.75 17L12.25 17A0.25 0.25 0 0 0 12 17.25ZM9 19.25L9 19.75A0.25 0.25 0 0 0 9.25 20L9.75 20A0.25 0.25 0 0 0 10 19.75L10 19.25A0.25 0.25 0 0 0 9.75 19L9.25 19A0.25 0.25 0 0 0 9 19.25ZM18 19.25L18 19.75A0.25 0.25 0 0 0 18.25 20L18.75 20A0.25 0.25 0 0 1 19 20.25L19 20.75A0.25 0.25 0 0 0 19.25 21L19.75 21A0.25 0.25 0 0 0 20 20.75L20 20.25A0.25 0.25 0 0 1 20.25 20L20.75 20A0.25 0.25 0 0 0 21 19.75L21 19.25A0.25 0.25 0 0 0 20.75 19L18.25 19A0.25 0.25 0 0 0 18 19.25ZM0 0.25L0 6.75A0.25 0.25 0 0 0 0.25 7L6.75 7A0.25 0.25 0 0 0 7 6.75L7 0.25A0.25 0.25 0 0 0 6.75 0L0.25 0A0.25 0.25 0 0 0 0 0.25ZM1 1.25L1 5.75A0.25 0.25 0 0 0 1.25 6L5.75 6A0.25 0.25 0 0 0 6 5.75L6 1.25A0.25 0.25 0 0 0 5.75 1L1.25 1A0.25 0.25 0 0 0 1 1.25ZM2 2.25L2 4.75A0.25 0.25 0 0 0 2.25 5L4.75 5A0.25 0.25 0 0 0 5 4.75L5 2.25A0.25 0.25 0 0 0 4.75 2L2.25 2A0.25 0.25 0 0 0 2 2.25ZM14 0.25L14 6.75A0.25 0.25 0 0 0 14.25 7L20.75 7A0.25 0.25 0 0 0 21 6.75L21 0.25A0.25 0.25 0 0 0 20.75 0L14.25 0A0.25 0.25 0 0 0 14 0.25ZM15 1.25L15 5.75A0.25 0.25 0 0 0 15.25 6L19.75 6A0.25 0.25 0 0 0 20 5.75L20 1.25A0.25 0.25 0 0 0 19.75 1L15.25 1A0.25 0.25 0 0 0 15 1.25ZM16 2.25L16 4.75A0.25 0.25 0 0 0 16.25 5L18.75 5A0.25 0.25 0 0 0 19 4.75L19 2.25A0.25 0.25 0 0 0 18.75 2L16.25 2A0.25 0.25 0 0 0 16 2.25ZM0 14.25L0 20.75A0.25 0.25 0 0 0 0.25 21L6.75 21A0.25 0.25 0 0 0 7 20.75L7 14.25A0.25 0.25 0 0 0 6.75 14L0.25 14A0.25 0.25 0 0 0 0 14.25ZM1 15.25L1 19.75A0.25 0.25 0 0 0 1.25 20L5.75 20A0.25 0.25 0 0 0 6 19.75L6 15.25A0.25 0.25 0 0 0 5.75 15L1.25 15A0.25 0.25 0 0 0 1 15.25ZM2 16.25L2 18.75A0.25 0.25 0 0 0 2.25 19L4.75 19A0.25 0.25 0 0 0 5 18.75L5 16.25A0.25 0.25 0 0 0 4.75 16L2.25 16A0.25 0.25 0 0 0 2 16.25Z" fill="#ffffff"/></g></g></svg>
