<?xml version="1.0" encoding="UTF-8"?>
<svg xmlns="http://www.w3.org/2000/svg" version="1.1" width="150" height="150" viewBox="0 0 150 150"><rect x="0" y="0" width="150" height="150" fill="#000000"/><g transform="scale(7.143)"><g transform="translate(0,0)"><path fill-rule="evenodd" d="M9 0.25L9 0.75A0.25 0.25 0 0 1 8.75 1L8.25 1A0.25 0.25 0 0 0 8 1.25L8 1.75A0.25 0.25 0 0 0 8.25 2L8.75 2A0.25 0.25 0 0 1 9 2.25L9 2.75A0.25 0.25 0 0 1 8.75 3L8.25 3A0.25 0.25 0 0 0 8 3.25L8 3.75A0.25 0.25 0 0 0 8.25 4L8.75 4A0.25 0.25 0 0 0 9 3.75L9 3.25A0.25 0.25 0 0 1 9.25 3L9.75 3A0.25 0.25 0 0 0 10 2.75L10 2.25A0.25 0.25 0 0 0 9.75 2L9.25 2A0.25 0.25 0 0 1 9 1.75L9 1.25A0.25 0.25 0 0 1 9.25 1L9.75 1A0.25 0.25 0 0 0 10 0.75L10 0.25A0.25 0.25 0 0 0 9.75 0L9.25 0A0.25 0.25 0 0 0 9 0.25ZM12 0.25L12 0.75A0.25 0.25 0 0 1 11.75 1L11.25 1A0.25 0.25 0 0 0 11 1.25L11 1.75A0.25 0.25 0 0 0 11.25 2L11.75 2A0.25 0.25 0 0 0 12 1.75L12 1.25A0.25 0.25 0 0 1 12.25 1L12.75 1A0.25 0.25 0 0 0 13 0.75L13 0.25A0.25 0.25 0 0 0 12.75 0L12.25 0A0.25 0.25 0 0 0 12 0.25ZM11 3.25L11 3.75A0.25 0.25 0 0 1 10.75 4L10.25 4A0.25 0.25 0 0 0 10 4.25L10 4.75A0.25 0.25 0 0 1 9.75 5L8.25 5A0.25 0.25 0 0 0 8 5.25L8 6.75A0.25 0.25 0 0 0 8.25 7L8.75 7A0.25 0.25 0 0 0 9 6.75L9 6.25A0.25 0.25 0 0 1 9.25 6L9.75 6A0.25 0.25 0 0 1 10 6.25L10 7.75A0.25 0.25 0 0 1 9.75 8L6.25 8A0.25 0.25 0 0 0 6 8.25L6 8.75A0.25 0.25 0 0 1 5.75 9L5.25 9A0.25 0.25 0 0 1 5 8.75L5 8.25A0.25 0.25 0 0 0 4.75 8L0.25 8A0.25 0.25 0 0 0 0 8.25L0 8.75A0.25 0.25 0 0 0 0.25 9L0.75 9A0.25 0.25 0 0 1 1 9.25L1 10.75A0.25 0.25 0 0 1 0.75 11L0.25 11A0.25 0.25 0 0 0 0 11.25L0 12.75A0.25 0.25 0 0 0 0.25 13L0.75 13A0.25 0.25 0 0 0 1 12.75L1 12.25A0.25 0.25 0 0 1 1.25 12L1.75 12A0.25 0.25 0 0 1 2 12.25L2 12.75A0.25 0.25 0 0 0 2.25 13L4.75 13A0.25 0.25 0 0 0 5 12.75L5 12.25A0.25 0.25 0 0 1 5.25 12L5.75 12A0.25 0.25 0 0 1 6 12.25L6 12.75A0.25 0.25 0 0 0 6.25 13L7.75 13A0.25 0.25 0 0 1 8 13.25L8 14.75A0.25 0.25 0 0 0 8.25 15L9.75 15A0.25 0.25 0 0 1 10 15.25L10 15.75A0.25 0.25 0 0 1 9.75 16L8.25 16A0.25 0.25 0 0 0 8 16.25L8 20.75A0.25 0.25 0 0 0 8.25 21L11.75 21A0.25 0.25 0 0 0 12 20.75L12 20.25A0.25 0.25 0 0 0 11.75 20L11.25 20A0.25 0.25 0 0 1 11 19.75L11 19.25A0.25 0.25 0 0 1 11.25 19L11.75 19A0.25 0.25 0 0 0 12 18.75L12 18.25A0.25 0.25 0 0 1 12.25 18L12.75 18A0.25 0.25 0 0 1 13 18.25L13 18.75A0.25 0.25 0 0 0 13.25 19L13.75 19A0.25 0.25 0 0 0 14 18.75L14 18.25A0.25 0.25 0 0 0 13.75 18L13.25 18A0.25 0.25 0 0 1 13 17.75L13 16.25A0.25 0.25 0 0 1 13.25 16L14.75 16A0.25 0.25 0 0 1 15 16.25L15 17.75A0.25 0.25 0 0 0 15.25 18L15.75 18A0.25 0.25 0 0 1 16 18.25L16 18.75A0.25 0.25 0 0 1 15.75 19L15.25 19A0.25 0.25 0 0 0 15 19.25L15 19.75A0.25 0.25 0 0 0 15.25 20L15.75 20A0.25 0.25 0 0 1 16 20.25L16 20.75A0.25 0.25 0 0 0 16.25 21L18.75 21A0.25 0.25 0 0 0 19 20.75L19 20.25A0.25 0.25 0 0 1 19.25 20L19.75 20A0.25 0.25 0 0 0 20 19.75L20 19.25A0.25 0.25 0 0 0 19.75 19L19.25 19A0.25 0.25 0 0 1 19 18.75L19 16.25A0.25 0.25 0 0 0 18.75 16L18.25 16A0.25 0.25 0 0 1 18 15.75L18 15.25A0.25 0.25 0 0 0 17.75 15L17.25 15A0.25 0.25 0 0 0 17 15.25L17 15.75A0.25 0.25 0 0 0 17.25 16L17.75 16A0.25 0.25 0 0 1 18 16.25L18 17.75A0.25 0.25 0 0 1 17.75 18L16.25 18A0.25 0.25 0 0 1 16 17.75L16 16.25A0.25 0.25 0 0 0 15.75 16L15.25 16A0.25 0.25 0 0 1 15 15.75L15 15.25A0.25 0.25 0 0 1 15.25 15L15.75 15A0.25 0.25 0 0 0 16 14.75L16 14.25A0.25 0.25 0 0 0 15.75 14L15.25 14A0.25 0.25 0 0 1 15 13.75L15 13.25A0.25 0.25 0 0 0 14.75 13L14.25 13A0.25 0.25 0 0 1 14 12.75L14 12.25A0.25 0.25 0 0 0 13.75 12L13.25 12A0.25 0.25 0 0 0 13 12.25L13 12.75A0.25 0.25 0 0 1 12.75 13L12.25 13A0.25 0.25 0 0 1 12 12.75L12 12.25A0.25 0.25 0 0 0 11.75 12L11.25 12A0.25 0.25 0 0 0 11 12.25L11 12.75A0.25 0.25 0 0 1 10.75 13L10.25 13A0.25 0.25 0 0 1 10 12.75L10 11.25A0.25 0.25 0 0 1 10.25 11L11.75 11A0.25 0.25 0 0 0 12 10.75L12 10.25A0.25 0.25 0 0 1 12.25 10L12.75 10A0.25 0.25 0 0 1 13 10.25L13 10.75A0.25 0.25 0 0 0 13.25 11L13.75 11A0.25 0.25 0 0 0 14 10.75L14 10.25A0.25 0.25 0 0 0 13.75 10L13.25 10A0.25 0.25 0 0 1 13 9.75L13 9.25A0.25 0.25 0 0 1 13.25 9L13.75 9A0.25 0.25 0 0 0 14 8.75L14 8.25A0.25 0.25 0 0 0 13.75 8L13.25 8A0.25 0.25 0 0 1 13 7.75L13 4.25A0.25 0.25 0 0 0 12.75 4L12.25 4A0.25 0.25 0 0 1 12 3.75L12 3.25A0.25 0.25 0 0 0 11.75 3L11.25 3A0.25 0.25 0 0 0 11 3.25ZM11 5.25L11 6.75A0.25 0.25 0 0 0 11.25 7L11.75 7A0.25 0.25 0 0 0 12 6.75L12 5.25A0.25 0.25 0 0 0 11.75 5L11.25 5A0.25 0.25 0 0 0 11 5.25ZM10 8.25L10 8.75A0.25 0.25 0 0 1 9.75 9L9.25 9A0.25 0.25 0 0 0 9 9.25L9 10.75A0.25 0.25 0 0 1 8.75 11L8.25 11A0.25 0.25 0 0 1 8 10.75L8 10.25A0.25 0.25 0 0 0 7.75 10L7.25 10A0.25 0.25 0 0 1 7 9.75L7 9.25A0.25 0.25 0 0 0 6.75 9L6.25 9A0.25 0.25 0 0 0 6 9.25L6 9.75A0.25 0.25 0 0 1 5.75 10L3.25 10A0.25 0.25 0 0 1 3 9.75L3 9.25A0.25 0.25 0 0 0 2.75 9L2.25 9A0.25 0.25 0 0 0 2 9.25L2 10.75A0.25 0.25 0 0 0 2.25 11L2.75 11A0.25 0.25 0 0 1 3 11.25L3 11.75A0.25 0.25 0 0 0 3.25 12L3.75 12A0.25 0.25 0 0 0 4 11.75L4 11.25A0.25 0.25 0 0 1 4.25 11L5.75 11A0.25 0.25 0 0 1 6 11.25L6 11.75A0.25 0.25 0 0 0 6.25 12L6.75 12A0.25 0.25 0 0 0 7 11.75L7 11.25A0.25 0.25 0 0 1 7.25 11L7.75 11A0.25 0.25 0 0 1 8 11.25L8 12.75A0.25 0.25 0 0 0 8.25 13L8.75 13A0.25 0.25 0 0 0 9 12.75L9 11.25A0.25 0.25 0 0 1 9.25 11L9.75 11A0.25 0.25 0 0 0 10 10.75L10 10.25A0.25 0.25 0 0 1 10.25 10L11.75 10A0.25 0.25 0 0 0 12 9.75L12 8.25A0.25 0.25 0 0 0 11.75 8L10.25 8A0.25 0.25 0 0 0 10 8.25ZM15 8.25L15 9.75A0.25 0.25 0 0 0 15.25 10L15.75 10A0.25 0.25 0 0 1 16 10.25L16 10.75A0.25 0.25 0 0 1 15.75 11L15.25 11A0.25 0.25 0 0 0 15 11.25L15 11.75A0.25 0.25 0 0 0 15.25 12L15.75 12A0.25 0.25 0 0 1 16 12.25L16 12.75A0.25 0.25 0 0 0 16.25 13L16.75 13A0.25 0.25 0 0 1 17 13.25L17 13.75A0.25 0.25 0 0 0 17.25 14L17.75 14A0.25 0.25 0 0 0 18 13.75L18 13.25A0.25 0.25 0 0 1 18.25 13L18.75 13A0.25 0.25 0 0 1 19 13.25L19 13.75A0.25 0.25 0 0 0 19.25 14L19.75 14A0.25 0.25 0 0 1 20 14.25L20 14.75A0.25 0.25 0 0 0 20.25 15L20.75 15A0.25 0.25 0 0 0 21 14.75L21 14.25A0.25 0.25 0 0 0 20.75 14L20.25 14A0.25 0.25 0 0 1 20 13.75L20 11.25A0.25 0.25 0 0 1 20.25 11L20.75 11A0.25 0.25 0 0 0 21 10.75L21 10.25A0.25 0.25 0 0 0 20.75 10L20.25 10A0.25 0.25 0 0 0 20 10.25L20 10.75A0.25 0.25 0 0 1 19.75 11L19.25 11A0.25 0.25 0 0 1 19 10.75L19 9.25A0.25 0.25 0 0 1 19.25 9L19.75 9A0.25 0.25 0 0 0 20 8.75L20 8.25A0.25 0.25 0 0 0 19.75 8L19.25 8A0.25 0.25 0 0 0 19 8.25L19 8.75A0.25 0.25 0 0 1 18.75 9L18.25 9A0.25 0.25 0 0 1 18 8.75L18 8.25A0.25 0.25 0 0 0 17.75 8L17.25 8A0.25 0.25 0 0 0 17 8.25L17 8.75A0.25 0.25 0 0 0 17.25 9L17.75 9A0.25 0.25 0 0 1 18 9.25L18 12.75A0.25 0.25 0 0 1 17.75 13L17.25 13A0.25 0.25 0 0 1 17 12.75L17 10.25A0.25 0.25 0 0 0 16.75 10L16.25 10A0.25 0.25 0 0 1 16 9.75L16 8.25A0.25 0.25 0 0 0 15.75 8L15.25 8A0.25 0.25 0 0 0 15 8.25ZM6 10.25L6 10.75A0.25 0.25 0 0 0 6.25 11L6.75 11A0.25 0.25 0 0 0 7 10.75L7 10.25A0.25 0.25 0 0 0 6.75 10L6.25 10A0.25 0.25 0 0 0 6 10.25ZM10 14.25L10 14.75A0.25 0.25 0 0 0 10.25 15L11.75 15A0.25 0.25 0 0 0 12 14.75L12 14.25A0.25 0.25 0 0 0 11.75 14L10.25 14A0.25 0.25 0 0 0 10 14.25ZM13 14.25L13 14.75A0.25 0.25 0 0 0 13.25 15L13.75 15A0.25 0.25 0 0 0 14 14.75L14 14.25A0.25 0.25 0 0 0 13.75 14L13.25 14A0.25 0.25 0 0 0 13 14.25ZM10 16.25L10 16.75A0.25 0.25 0 0 0 10.25 17L10.75 17A0.25 0.25 0 0 1 11 17.25L11 17.75A0.25 0.25 0 0 0 11.25 18L11.75 18A0.25 0.25 0 0 0 12 17.75L12 16.25A0.25 0.25 0 0 0 11.75 16L10.25 16A0.25 0.25 0 0 0 10 16.25ZM9 18.25L9 18.75A0.25 0.25 0 0 0 9.25 19L9.75 19A0.25 0.25 0 0 0 10 18.75L10 18.25A0.25 0.25 0 0 0 9.75 18L9.25 18A0.25 0.25 0 0 0 9 18.25ZM17 19.25L17 19.75A0.25 0.25 0 0 0 17.25 20L17.75 20A0.25 0.25 0 0 0 18 19.75L18 19.25A0.25 0.25 0 0 0 17.75 19L17.25 19A0.25 0.25 0 0 0 17 19.25ZM13 20.25L13 20.75A0.25 0.25 0 0 0 13.25 21L13.75 21A0.25 0.25 0 0 0 14 20.75L14 20.25A0.25 0.25 0 0 0 13.75 20L13.25 20A0.25 0.25 0 0 0 13 20.25ZM0 0.25L0 6.75A0.25 0.25 0 0 0 0.25 7L6.75 7A0.25 0.25 0 0 0 7 6.75L7 0.25A0.25 0.25 0 0 0 6.75 0L0.25 0A0.25 0.25 0 0 0 0 0.25ZM1 1.25L1 5.75A0.25 0.25 0 0 0 1.25 6L5.75 6A0.25 0.25 0 0 0 6 5.75L6 1.25A0.25 0.25 0 0 0 5.75 1L1.25 1A0.25 0.25 0 0 0 1 1.25ZM2 2.25L2 4.75A0.25 0.25 0 0 0 2.25 5L4.75 5A0.25 0.25 0 0 0 5 4.75L5 2.25A0.25 0.25 0 0 0 4.75 2L2.25 2A0.25 0.25 0 0 0 2 2.25ZM14 0.25L14 6.75A0.25 0.25 0 0 0 14.25 7L20.75 7A0.25 0.25 0 0 0 21 6.75L21 0.25A0.25 0.25 0 0 0 20.75 0L14.25 0A0.25 0.25 0 0 0 14 0.25ZM15 1.25L15 5.75A0.25 0.25 0 0 0 15.25 6L19.75 6A0.25 0.25 0 0 0 20 5.75L20 1.25A0.25 0.25 0 0 0 19.75 1L15.25 1A0.25 0.25 0 0 0 15 1.25ZM16 2.25L16 4.75A0.25 0.25 0 0 0 16.25 5L18.75 5A0.25 0.25 0 0 0 19 4.75L19 2.25A0.25 0.25 0 0 0 18.75 2L16.25 2A0.25 0.25 0 0 0 16 2.25ZM0 14.25L0 20.75A0.25 0.25 0 0 0 0.25 21L6.75 21A0.25 0.25 0 0 0 7 20.75L7 14.25A0.25 0.25 0 0 0 6.75 14L0.25 14A0.25 0.25 0 0 0 0 14.25ZM1 15.25L1 19.75A0.25 0.25 0 0 0 1.25 20L5.75 20A0.25 0.25 0 0 0 6 19.75L6 15.25A0.25 0.25 0 0 0 5.75 15L1.25 15A0.25 0.25 0 0 0 1 15.25ZM2 16.25L2 18.75A0.25 0.25 0 0 0 2.25 19L4.75 19A0.25 0.25 0 0 0 5 18.75L5 16.25A0.25 0.25 0 0 0 4.75 16L2.25 16A0.25 0.25 0 0 0 2 16.25Z" fill="#ffffff"/></g></g></svg>
