<?xml version="1.0" encoding="UTF-8"?>
<svg xmlns="http://www.w3.org/2000/svg" version="1.1" width="150" height="150" viewBox="0 0 150 150"><rect x="0" y="0" width="150" height="150" fill="#000000"/><g transform="scale(7.143)"><g transform="translate(0,0)"><path fill-rule="evenodd" d="M8 0.25L8 0.75A0.25 0.25 0 0 0 8.25 1L8.75 1A0.25 0.25 0 0 1 9 1.25L9 1.75A0.25 0.25 0 0 1 8.75 2L8.25 2A0.25 0.25 0 0 0 8 2.25L8 4.75A0.25 0.25 0 0 0 8.25 5L10.75 5A0.25 0.25 0 0 0 11 4.75L11 4.25A0.25 0.25 0 0 1 11.25 4L11.75 4A0.25 0.25 0 0 0 12 3.75L12 3.25A0.25 0.25 0 0 1 12.25 3L12.75 3A0.25 0.25 0 0 0 13 2.75L13 0.25A0.25 0.25 0 0 0 12.75 0L12.25 0A0.25 0.25 0 0 0 12 0.25L12 2.75A0.25 0.25 0 0 1 11.75 3L11.25 3A0.25 0.25 0 0 1 11 2.75L11 2.25A0.25 0.25 0 0 0 10.75 2L10.25 2A0.25 0.25 0 0 1 10 1.75L10 0.25A0.25 0.25 0 0 0 9.75 0L8.25 0A0.25 0.25 0 0 0 8 0.25ZM9 2.25L9 3.75A0.25 0.25 0 0 0 9.25 4L10.75 4A0.25 0.25 0 0 0 11 3.75L11 3.25A0.25 0.25 0 0 0 10.75 3L10.25 3A0.25 0.25 0 0 1 10 2.75L10 2.25A0.25 0.25 0 0 0 9.75 2L9.25 2A0.25 0.25 0 0 0 9 2.25ZM8 6.25L8 6.75A0.25 0.25 0 0 0 8.25 7L8.75 7A0.25 0.25 0 0 1 9 7.25L9 7.75A0.25 0.25 0 0 1 8.75 8L8.25 8A0.25 0.25 0 0 0 8 8.25L8 8.75A0.25 0.25 0 0 1 7.75 9L7.25 9A0.25 0.25 0 0 1 7 8.75L7 8.25A0.25 0.25 0 0 0 6.75 8L6.25 8A0.25 0.25 0 0 0 6 8.25L6 8.75A0.25 0.25 0 0 1 5.75 9L4.25 9A0.25 0.25 0 0 1 4 8.75L4 8.25A0.25 0.25 0 0 0 3.75 8L0.25 8A0.25 0.25 0 0 0 0 8.25L0 8.75A0.25 0.25 0 0 0 0.25 9L3.75 9A0.25 0.25 0 0 1 4 9.25L4 11.75A0.25 0.25 0 0 1 3.75 12L3.25 12A0.25 0.25 0 0 1 3 11.75L3 10.25A0.25 0.25 0 0 0 2.75 10L1.25 10A0.25 0.25 0 0 0 1 10.25L1 10.75A0.25 0.25 0 0 1 0.75 11L0.25 11A0.25 0.25 0 0 0 0 11.25L0 12.75A0.25 0.25 0 0 0 0.25 13L0.75 13A0.25 0.25 0 0 0 1 12.75L1 11.25A0.25 0.25 0 0 1 1.25 11L1.75 11A0.25 0.25 0 0 1 2 11.25L2 12.75A0.25 0.25 0 0 0 2.25 13L3.75 13A0.25 0.25 0 0 0 4 12.75L4 12.25A0.25 0.25 0 0 1 4.25 12L4.75 12A0.25 0.25 0 0 1 5 12.25L5 12.75A0.25 0.25 0 0 0 5.25 13L6.75 13A0.25 0.25 0 0 0 7 12.75L7 12.25A0.25 0.25 0 0 1 7.25 12L7.75 12A0.25 0.25 0 0 0 8 11.75L8 11.25A0.25 0.25 0 0 1 8.25 11L9.75 11A0.25 0.25 0 0 0 10 10.75L10 10.25A0.25 0.25 0 0 1 10.25 10L10.75 10A0.25 0.25 0 0 0 11 9.75L11 6.25A0.25 0.25 0 0 0 10.75 6L10.25 6A0.25 0.25 0 0 0 10 6.25L10 6.75A0.25 0.25 0 0 1 9.75 7L9.25 7A0.25 0.25 0 0 1 9 6.75L9 6.25A0.25 0.25 0 0 0 8.75 6L8.25 6A0.25 0.25 0 0 0 8 6.25ZM12 6.25L12 6.75A0.25 0.25 0 0 0 12.25 7L12.75 7A0.25 0.25 0 0 0 13 6.75L13 6.25A0.25 0.25 0 0 0 12.75 6L12.25 6A0.25 0.25 0 0 0 12 6.25ZM9 8.25L9 8.75A0.25 0.25 0 0 1 8.75 9L8.25 9A0.25 0.25 0 0 0 8 9.25L8 9.75A0.25 0.25 0 0 1 7.75 10L7.25 10A0.25 0.25 0 0 1 7 9.75L7 9.25A0.25 0.25 0 0 0 6.75 9L6.25 9A0.25 0.25 0 0 0 6 9.25L6 9.75A0.25 0.25 0 0 1 5.75 10L5.25 10A0.25 0.25 0 0 0 5 10.25L5 11.75A0.25 0.25 0 0 0 5.25 12L6.75 12A0.25 0.25 0 0 0 7 11.75L7 11.25A0.25 0.25 0 0 1 7.25 11L7.75 11A0.25 0.25 0 0 0 8 10.75L8 10.25A0.25 0.25 0 0 1 8.25 10L8.75 10A0.25 0.25 0 0 0 9 9.75L9 9.25A0.25 0.25 0 0 1 9.25 9L9.75 9A0.25 0.25 0 0 0 10 8.75L10 8.25A0.25 0.25 0 0 0 9.75 8L9.25 8A0.25 0.25 0 0 0 9 8.25ZM13 8.25L13 8.75A0.25 0.25 0 0 1 12.75 9L12.25 9A0.25 0.25 0 0 0 12 9.25L12 11.75A0.25 0.25 0 0 1 11.75 12L11.25 12A0.25 0.25 0 0 0 11 12.25L11 12.75A0.25 0.25 0 0 1 10.75 13L10.25 13A0.25 0.25 0 0 1 10 12.75L10 12.25A0.25 0.25 0 0 0 9.75 12L9.25 12A0.25 0.25 0 0 0 9 12.25L9 12.75A0.25 0.25 0 0 1 8.75 13L8.25 13A0.25 0.25 0 0 0 8 13.25L8 13.75A0.25 0.25 0 0 0 8.25 14L8.75 14A0.25 0.25 0 0 0 9 13.75L9 13.25A0.25 0.25 0 0 1 9.25 13L9.75 13A0.25 0.25 0 0 1 10 13.25L10 13.75A0.25 0.25 0 0 0 10.25 14L10.75 14A0.25 0.25 0 0 0 11 13.75L11 13.25A0.25 0.25 0 0 1 11.25 13L11.75 13A0.25 0.25 0 0 0 12 12.75L12 12.25A0.25 0.25 0 0 1 12.25 12L12.75 12A0.25 0.25 0 0 1 13 12.25L13 14.75A0.25 0.25 0 0 1 12.75 15L11.25 15A0.25 0.25 0 0 0 11 15.25L11 16.75A0.25 0.25 0 0 1 10.75 17L8.25 17A0.25 0.25 0 0 0 8 17.25L8 20.75A0.25 0.25 0 0 0 8.25 21L12.75 21A0.25 0.25 0 0 0 13 20.75L13 19.25A0.25 0.25 0 0 1 13.25 19L13.75 19A0.25 0.25 0 0 1 14 19.25L14 19.75A0.25 0.25 0 0 0 14.25 20L14.75 20A0.25 0.25 0 0 1 15 20.25L15 20.75A0.25 0.25 0 0 0 15.25 21L15.75 21A0.25 0.25 0 0 0 16 20.75L16 20.25A0.25 0.25 0 0 1 16.25 20L16.75 20A0.25 0.25 0 0 1 17 20.25L17 20.75A0.25 0.25 0 0 0 17.25 21L17.75 21A0.25 0.25 0 0 0 18 20.75L18 19.25A0.25 0.25 0 0 1 18.25 19L18.75 19A0.25 0.25 0 0 1 19 19.25L19 20.75A0.25 0.25 0 0 0 19.25 21L19.75 21A0.25 0.25 0 0 0 20 20.75L20 20.25A0.25 0.25 0 0 1 20.25 20L20.75 20A0.25 0.25 0 0 0 21 19.75L21 19.25A0.25 0.25 0 0 0 20.75 19L19.25 19A0.25 0.25 0 0 1 19 18.75L19 18.25A0.25 0.25 0 0 1 19.25 18L19.75 18A0.25 0.25 0 0 0 20 17.75L20 17.25A0.25 0.25 0 0 1 20.25 17L20.75 17A0.25 0.25 0 0 0 21 16.75L21 16.25A0.25 0.25 0 0 0 20.75 16L20.25 16A0.25 0.25 0 0 1 20 15.75L20 14.25A0.25 0.25 0 0 1 20.25 14L20.75 14A0.25 0.25 0 0 0 21 13.75L21 10.25A0.25 0.25 0 0 0 20.75 10L20.25 10A0.25 0.25 0 0 1 20 9.75L20 9.25A0.25 0.25 0 0 1 20.25 9L20.75 9A0.25 0.25 0 0 0 21 8.75L21 8.25A0.25 0.25 0 0 0 20.75 8L20.25 8A0.25 0.25 0 0 0 20 8.25L20 8.75A0.25 0.25 0 0 1 19.75 9L19.25 9A0.25 0.25 0 0 1 19 8.75L19 8.25A0.25 0.25 0 0 0 18.75 8L16.25 8A0.25 0.25 0 0 0 16 8.25L16 8.75A0.25 0.25 0 0 1 15.75 9L15.25 9A0.25 0.25 0 0 0 15 9.25L15 9.75A0.25 0.25 0 0 1 14.75 10L13.25 10A0.25 0.25 0 0 1 13 9.75L13 9.25A0.25 0.25 0 0 1 13.25 9L13.75 9A0.25 0.25 0 0 0 14 8.75L14 8.25A0.25 0.25 0 0 0 13.75 8L13.25 8A0.25 0.25 0 0 0 13 8.25ZM16 9.25L16 9.75A0.25 0.25 0 0 0 16.25 10L16.75 10A0.25 0.25 0 0 1 17 10.25L17 10.75A0.25 0.25 0 0 1 16.75 11L14.25 11A0.25 0.25 0 0 0 14 11.25L14 13.75A0.25 0.25 0 0 0 14.25 14L14.75 14A0.25 0.25 0 0 1 15 14.25L15 16.75A0.25 0.25 0 0 1 14.75 17L14.25 17A0.25 0.25 0 0 1 14 16.75L14 16.25A0.25 0.25 0 0 0 13.75 16L12.25 16A0.25 0.25 0 0 0 12 16.25L12 16.75A0.25 0.25 0 0 1 11.75 17L11.25 17A0.25 0.25 0 0 0 11 17.25L11 17.75A0.25 0.25 0 0 0 11.25 18L11.75 18A0.25 0.25 0 0 1 12 18.25L12 18.75A0.25 0.25 0 0 0 12.25 19L12.75 19A0.25 0.25 0 0 0 13 18.75L13 17.25A0.25 0.25 0 0 1 13.25 17L13.75 17A0.25 0.25 0 0 1 14 17.25L14 18.75A0.25 0.25 0 0 0 14.25 19L14.75 19A0.25 0.25 0 0 1 15 19.25L15 19.75A0.25 0.25 0 0 0 15.25 20L15.75 20A0.25 0.25 0 0 0 16 19.75L16 17.25A0.25 0.25 0 0 1 16.25 17L16.75 17A0.25 0.25 0 0 1 17 17.25L17 17.75A0.25 0.25 0 0 0 17.25 18L18.75 18A0.25 0.25 0 0 0 19 17.75L19 17.25A0.25 0.25 0 0 1 19.25 17L19.75 17A0.25 0.25 0 0 0 20 16.75L20 16.25A0.25 0.25 0 0 0 19.75 16L19.25 16A0.25 0.25 0 0 1 19 15.75L19 15.25A0.25 0.25 0 0 0 18.75 15L18.25 15A0.25 0.25 0 0 1 18 14.75L18 12.25A0.25 0.25 0 0 1 18.25 12L18.75 12A0.25 0.25 0 0 1 19 12.25L19 13.75A0.25 0.25 0 0 0 19.25 14L19.75 14A0.25 0.25 0 0 0 20 13.75L20 10.25A0.25 0.25 0 0 0 19.75 10L19.25 10A0.25 0.25 0 0 0 19 10.25L19 10.75A0.25 0.25 0 0 1 18.75 11L18.25 11A0.25 0.25 0 0 1 18 10.75L18 9.25A0.25 0.25 0 0 0 17.75 9L16.25 9A0.25 0.25 0 0 0 16 9.25ZM6 10.25L6 10.75A0.25 0.25 0 0 0 6.25 11L6.75 11A0.25 0.25 0 0 0 7 10.75L7 10.25A0.25 0.25 0 0 0 6.75 10L6.25 10A0.25 0.25 0 0 0 6 10.25ZM16 12.25L16 12.75A0.25 0.25 0 0 1 15.75 13L15.25 13A0.25 0.25 0 0 0 15 13.25L15 13.75A0.25 0.25 0 0 0 15.25 14L15.75 14A0.25 0.25 0 0 1 16 14.25L16 14.75A0.25 0.25 0 0 0 16.25 15L16.75 15A0.25 0.25 0 0 1 17 15.25L17 16.75A0.25 0.25 0 0 0 17.25 17L17.75 17A0.25 0.25 0 0 0 18 16.75L18 15.25A0.25 0.25 0 0 0 17.75 15L17.25 15A0.25 0.25 0 0 1 17 14.75L17 14.25A0.25 0.25 0 0 0 16.75 14L16.25 14A0.25 0.25 0 0 1 16 13.75L16 13.25A0.25 0.25 0 0 1 16.25 13L16.75 13A0.25 0.25 0 0 0 17 12.75L17 12.25A0.25 0.25 0 0 0 16.75 12L16.25 12A0.25 0.25 0 0 0 16 12.25ZM9 19.25L9 19.75A0.25 0.25 0 0 0 9.25 20L10.75 20A0.25 0.25 0 0 0 11 19.75L11 19.25A0.25 0.25 0 0 0 10.75 19L9.25 19A0.25 0.25 0 0 0 9 19.25ZM0 0.25L0 6.75A0.25 0.25 0 0 0 0.25 7L6.75 7A0.25 0.25 0 0 0 7 6.75L7 0.25A0.25 0.25 0 0 0 6.75 0L0.25 0A0.25 0.25 0 0 0 0 0.25ZM1 1.25L1 5.75A0.25 0.25 0 0 0 1.25 6L5.75 6A0.25 0.25 0 0 0 6 5.75L6 1.25A0.25 0.25 0 0 0 5.75 1L1.25 1A0.25 0.25 0 0 0 1 1.25ZM2 2.25L2 4.75A0.25 0.25 0 0 0 2.25 5L4.75 5A0.25 0.25 0 0 0 5 4.75L5 2.25A0.25 0.25 0 0 0 4.75 2L2.25 2A0.25 0.25 0 0 0 2 2.25ZM14 0.25L14 6.75A0.25 0.25 0 0 0 14.25 7L20.75 7A0.25 0.25 0 0 0 21 6.75L21 0.25A0.25 0.25 0 0 0 20.75 0L14.25 0A0.25 0.25 0 0 0 14 0.25ZM15 1.25L15 5.75A0.25 0.25 0 0 0 15.25 6L19.75 6A0.25 0.25 0 0 0 20 5.75L20 1.25A0.25 0.25 0 0 0 19.75 1L15.25 1A0.25 0.25 0 0 0 15 1.25ZM16 2.25L16 4.75A0.25 0.25 0 0 0 16.25 5L18.75 5A0.25 0.25 0 0 0 19 4.75L19 2.25A0.25 0.25 0 0 0 18.75 2L16.25 2A0.25 0.25 0 0 0 16 2.25ZM0 14.25L0 20.75A0.25 0.25 0 0 0 0.25 21L6.75 21A0.25 0.25 0 0 0 7 20.75L7 14.25A0.25 0.25 0 0 0 6.75 14L0.25 14A0.25 0.25 0 0 0 0 14.25ZM1 15.25L1 19.75A0.25 0.25 0 0 0 1.25 20L5.75 20A0.25 0.25 0 0 0 6 19.75L6 15.25A0.25 0.25 0 0 0 5.75 15L1.25 15A0.25 0.25 0 0 0 1 15.25ZM2 16.25L2 18.75A0.25 0.25 0 0 0 2.25 19L4.75 19A0.25 0.25 0 0 0 5 18.75L5 16.25A0.25 0.25 0 0 0 4.75 16L2.25 16A0.25 0.25 0 0 0 2 16.25Z" fill="#ffffff"/></g></g></svg>
