<?xml version="1.0" encoding="UTF-8"?>
<svg xmlns="http://www.w3.org/2000/svg" version="1.1" width="150" height="150" viewBox="0 0 150 150"><rect x="0" y="0" width="150" height="150" fill="#000000"/><g transform="scale(7.143)"><g transform="translate(0,0)"><path fill-rule="evenodd" d="M10 0.25L10 0.75A0.25 0.25 0 0 0 10.25 1L10.75 1A0.25 0.25 0 0 0 11 0.75L11 0.25A0.25 0.25 0 0 0 10.75 0L10.25 0A0.25 0.25 0 0 0 10 0.25ZM12 0.25L12 1.75A0.25 0.25 0 0 0 12.25 2L12.75 2A0.25 0.25 0 0 0 13 1.75L13 0.25A0.25 0.25 0 0 0 12.75 0L12.25 0A0.25 0.25 0 0 0 12 0.25ZM8 2.25L8 2.75A0.25 0.25 0 0 0 8.25 3L8.75 3A0.25 0.25 0 0 0 9 2.75L9 2.25A0.25 0.25 0 0 0 8.75 2L8.25 2A0.25 0.25 0 0 0 8 2.25ZM10 2.25L10 2.75A0.25 0.25 0 0 0 10.25 3L10.75 3A0.25 0.25 0 0 0 11 2.75L11 2.25A0.25 0.25 0 0 0 10.75 2L10.25 2A0.25 0.25 0 0 0 10 2.25ZM12 3.25L12 3.75A0.25 0.25 0 0 1 11.75 4L11.25 4A0.25 0.25 0 0 0 11 4.25L11 4.75A0.25 0.25 0 0 1 10.75 5L10.25 5A0.25 0.25 0 0 1 10 4.75L10 4.25A0.25 0.25 0 0 0 9.75 4L9.25 4A0.25 0.25 0 0 0 9 4.25L9 5.75A0.25 0.25 0 0 1 8.75 6L8.25 6A0.25 0.25 0 0 0 8 6.25L8 7.75A0.25 0.25 0 0 1 7.75 8L4.25 8A0.25 0.25 0 0 0 4 8.25L4 8.75A0.25 0.25 0 0 1 3.75 9L3.25 9A0.25 0.25 0 0 1 3 8.75L3 8.25A0.25 0.25 0 0 0 2.75 8L0.25 8A0.25 0.25 0 0 0 0 8.25L0 8.75A0.25 0.25 0 0 0 0.25 9L0.75 9A0.25 0.25 0 0 1 1 9.25L1 9.75A0.25 0.25 0 0 1 0.75 10L0.25 10A0.25 0.25 0 0 0 0 10.25L0 12.75A0.25 0.25 0 0 0 0.25 13L0.75 13A0.25 0.25 0 0 0 1 12.75L1 11.25A0.25 0.25 0 0 1 1.25 11L1.75 11A0.25 0.25 0 0 1 2 11.25L2 12.75A0.25 0.25 0 0 0 2.25 13L3.75 13A0.25 0.25 0 0 0 4 12.75L4 12.25A0.25 0.25 0 0 1 4.25 12L5.75 12A0.25 0.25 0 0 1 6 12.25L6 12.75A0.25 0.25 0 0 0 6.25 13L6.75 13A0.25 0.25 0 0 0 7 12.75L7 12.25A0.25 0.25 0 0 1 7.25 12L8.75 12A0.25 0.25 0 0 0 9 11.75L9 10.25A0.25 0.25 0 0 1 9.25 10L9.75 10A0.25 0.25 0 0 1 10 10.25L10 10.75A0.25 0.25 0 0 0 10.25 11L10.75 11A0.25 0.25 0 0 1 11 11.25L11 11.75A0.25 0.25 0 0 1 10.75 12L10.25 12A0.25 0.25 0 0 0 10 12.25L10 13.75A0.25 0.25 0 0 0 10.25 14L10.75 14A0.25 0.25 0 0 0 11 13.75L11 13.25A0.25 0.25 0 0 1 11.25 13L11.75 13A0.25 0.25 0 0 0 12 12.75L12 12.25A0.25 0.25 0 0 1 12.25 12L12.75 12A0.25 0.25 0 0 1 13 12.25L13 12.75A0.25 0.25 0 0 0 13.25 13L13.75 13A0.25 0.25 0 0 1 14 13.25L14 13.75A0.25 0.25 0 0 0 14.25 14L14.75 14A0.25 0.25 0 0 0 15 13.75L15 13.25A0.25 0.25 0 0 1 15.25 13L15.75 13A0.25 0.25 0 0 0 16 12.75L16 12.25A0.25 0.25 0 0 1 16.25 12L17.75 12A0.25 0.25 0 0 1 18 12.25L18 13.75A0.25 0.25 0 0 0 18.25 14L18.75 14A0.25 0.25 0 0 1 19 14.25L19 14.75A0.25 0.25 0 0 1 18.75 15L18.25 15A0.25 0.25 0 0 0 18 15.25L18 16.75A0.25 0.25 0 0 1 17.75 17L17.25 17A0.25 0.25 0 0 1 17 16.75L17 16.25A0.25 0.25 0 0 0 16.75 16L16.25 16A0.25 0.25 0 0 0 16 16.25L16 16.75A0.25 0.25 0 0 1 15.75 17L15.25 17A0.25 0.25 0 0 1 15 16.75L15 15.25A0.25 0.25 0 0 0 14.75 15L14.25 15A0.25 0.25 0 0 0 14 15.25L14 16.75A0.25 0.25 0 0 1 13.75 17L13.25 17A0.25 0.25 0 0 1 13 16.75L13 16.25A0.25 0.25 0 0 0 12.75 16L12.25 16A0.25 0.25 0 0 0 12 16.25L12 16.75A0.25 0.25 0 0 1 11.75 17L11.25 17A0.25 0.25 0 0 1 11 16.75L11 15.25A0.25 0.25 0 0 0 10.75 15L10.25 15A0.25 0.25 0 0 0 10 15.25L10 16.75A0.25 0.25 0 0 1 9.75 17L9.25 17A0.25 0.25 0 0 1 9 16.75L9 13.25A0.25 0.25 0 0 0 8.75 13L8.25 13A0.25 0.25 0 0 0 8 13.25L8 16.75A0.25 0.25 0 0 0 8.25 17L8.75 17A0.25 0.25 0 0 1 9 17.25L9 17.75A0.25 0.25 0 0 1 8.75 18L8.25 18A0.25 0.25 0 0 0 8 18.25L8 20.75A0.25 0.25 0 0 0 8.25 21L8.75 21A0.25 0.25 0 0 0 9 20.75L9 20.25A0.25 0.25 0 0 1 9.25 20L9.75 20A0.25 0.25 0 0 1 10 20.25L10 20.75A0.25 0.25 0 0 0 10.25 21L11.75 21A0.25 0.25 0 0 0 12 20.75L12 20.25A0.25 0.25 0 0 1 12.25 20L12.75 20A0.25 0.25 0 0 1 13 20.25L13 20.75A0.25 0.25 0 0 0 13.25 21L15.75 21A0.25 0.25 0 0 0 16 20.75L16 20.25A0.25 0.25 0 0 1 16.25 20L16.75 20A0.25 0.25 0 0 1 17 20.25L17 20.75A0.25 0.25 0 0 0 17.25 21L18.75 21A0.25 0.25 0 0 0 19 20.75L19 20.25A0.25 0.25 0 0 0 18.75 20L18.25 20A0.25 0.25 0 0 1 18 19.75L18 19.25A0.25 0.25 0 0 1 18.25 19L18.75 19A0.25 0.25 0 0 0 19 18.75L19 18.25A0.25 0.25 0 0 1 19.25 18L19.75 18A0.25 0.25 0 0 1 20 18.25L20 18.75A0.25 0.25 0 0 0 20.25 19L20.75 19A0.25 0.25 0 0 0 21 18.75L21 18.25A0.25 0.25 0 0 0 20.75 18L20.25 18A0.25 0.25 0 0 1 20 17.75L20 17.25A0.25 0.25 0 0 1 20.25 17L20.75 17A0.25 0.25 0 0 0 21 16.75L21 16.25A0.25 0.25 0 0 0 20.75 16L20.25 16A0.25 0.25 0 0 1 20 15.75L20 14.25A0.25 0.25 0 0 0 19.75 14L19.25 14A0.25 0.25 0 0 1 19 13.75L19 13.25A0.25 0.25 0 0 1 19.25 13L19.75 13A0.25 0.25 0 0 0 20 12.75L20 10.25A0.25 0.25 0 0 1 20.25 10L20.75 10A0.25 0.25 0 0 0 21 9.75L21 9.25A0.25 0.25 0 0 0 20.75 9L20.25 9A0.25 0.25 0 0 0 20 9.25L20 9.75A0.25 0.25 0 0 1 19.75 10L18.25 10A0.25 0.25 0 0 1 18 9.75L18 9.25A0.25 0.25 0 0 1 18.25 9L18.75 9A0.25 0.25 0 0 0 19 8.75L19 8.25A0.25 0.25 0 0 0 18.75 8L18.25 8A0.25 0.25 0 0 0 18 8.25L18 8.75A0.25 0.25 0 0 1 17.75 9L17.25 9A0.25 0.25 0 0 0 17 9.25L17 9.75A0.25 0.25 0 0 0 17.25 10L17.75 10A0.25 0.25 0 0 1 18 10.25L18 10.75A0.25 0.25 0 0 1 17.75 11L16.25 11A0.25 0.25 0 0 1 16 10.75L16 9.25A0.25 0.25 0 0 0 15.75 9L15.25 9A0.25 0.25 0 0 1 15 8.75L15 8.25A0.25 0.25 0 0 0 14.75 8L12.25 8A0.25 0.25 0 0 0 12 8.25L12 8.75A0.25 0.25 0 0 1 11.75 9L11.25 9A0.25 0.25 0 0 1 11 8.75L11 6.25A0.25 0.25 0 0 1 11.25 6L11.75 6A0.25 0.25 0 0 1 12 6.25L12 6.75A0.25 0.25 0 0 0 12.25 7L12.75 7A0.25 0.25 0 0 0 13 6.75L13 6.25A0.25 0.25 0 0 0 12.75 6L12.25 6A0.25 0.25 0 0 1 12 5.75L12 5.25A0.25 0.25 0 0 1 12.25 5L12.75 5A0.25 0.25 0 0 0 13 4.75L13 3.25A0.25 0.25 0 0 0 12.75 3L12.25 3A0.25 0.25 0 0 0 12 3.25ZM9 6.25L9 8.75A0.25 0.25 0 0 0 9.25 9L9.75 9A0.25 0.25 0 0 1 10 9.25L10 9.75A0.25 0.25 0 0 0 10.25 10L10.75 10A0.25 0.25 0 0 0 11 9.75L11 9.25A0.25 0.25 0 0 0 10.75 9L10.25 9A0.25 0.25 0 0 1 10 8.75L10 6.25A0.25 0.25 0 0 0 9.75 6L9.25 6A0.25 0.25 0 0 0 9 6.25ZM4 9.25L4 9.75A0.25 0.25 0 0 0 4.25 10L4.75 10A0.25 0.25 0 0 1 5 10.25L5 10.75A0.25 0.25 0 0 0 5.25 11L5.75 11A0.25 0.25 0 0 1 6 11.25L6 11.75A0.25 0.25 0 0 0 6.25 12L6.75 12A0.25 0.25 0 0 0 7 11.75L7 11.25A0.25 0.25 0 0 1 7.25 11L7.75 11A0.25 0.25 0 0 0 8 10.75L8 9.25A0.25 0.25 0 0 0 7.75 9L4.25 9A0.25 0.25 0 0 0 4 9.25ZM12 9.25L12 10.75A0.25 0.25 0 0 0 12.25 11L12.75 11A0.25 0.25 0 0 0 13 10.75L13 9.25A0.25 0.25 0 0 0 12.75 9L12.25 9A0.25 0.25 0 0 0 12 9.25ZM14 9.25L14 9.75A0.25 0.25 0 0 0 14.25 10L14.75 10A0.25 0.25 0 0 0 15 9.75L15 9.25A0.25 0.25 0 0 0 14.75 9L14.25 9A0.25 0.25 0 0 0 14 9.25ZM6 10.25L6 10.75A0.25 0.25 0 0 0 6.25 11L6.75 11A0.25 0.25 0 0 0 7 10.75L7 10.25A0.25 0.25 0 0 0 6.75 10L6.25 10A0.25 0.25 0 0 0 6 10.25ZM3 11.25L3 11.75A0.25 0.25 0 0 0 3.25 12L3.75 12A0.25 0.25 0 0 0 4 11.75L4 11.25A0.25 0.25 0 0 0 3.75 11L3.25 11A0.25 0.25 0 0 0 3 11.25ZM14 11.25L14 11.75A0.25 0.25 0 0 0 14.25 12L14.75 12A0.25 0.25 0 0 0 15 11.75L15 11.25A0.25 0.25 0 0 0 14.75 11L14.25 11A0.25 0.25 0 0 0 14 11.25ZM18 11.25L18 11.75A0.25 0.25 0 0 0 18.25 12L18.75 12A0.25 0.25 0 0 0 19 11.75L19 11.25A0.25 0.25 0 0 0 18.75 11L18.25 11A0.25 0.25 0 0 0 18 11.25ZM12 14.25L12 14.75A0.25 0.25 0 0 0 12.25 15L12.75 15A0.25 0.25 0 0 0 13 14.75L13 14.25A0.25 0.25 0 0 0 12.75 14L12.25 14A0.25 0.25 0 0 0 12 14.25ZM16 14.25L16 14.75A0.25 0.25 0 0 0 16.25 15L16.75 15A0.25 0.25 0 0 0 17 14.75L17 14.25A0.25 0.25 0 0 0 16.75 14L16.25 14A0.25 0.25 0 0 0 16 14.25ZM19 16.25L19 16.75A0.25 0.25 0 0 1 18.75 17L18.25 17A0.25 0.25 0 0 0 18 17.25L18 17.75A0.25 0.25 0 0 0 18.25 18L18.75 18A0.25 0.25 0 0 0 19 17.75L19 17.25A0.25 0.25 0 0 1 19.25 17L19.75 17A0.25 0.25 0 0 0 20 16.75L20 16.25A0.25 0.25 0 0 0 19.75 16L19.25 16A0.25 0.25 0 0 0 19 16.25ZM12 17.25L12 18.75A0.25 0.25 0 0 0 12.25 19L12.75 19A0.25 0.25 0 0 0 13 18.75L13 17.25A0.25 0.25 0 0 0 12.75 17L12.25 17A0.25 0.25 0 0 0 12 17.25ZM14 17.25L14 17.75A0.25 0.25 0 0 0 14.25 18L14.75 18A0.25 0.25 0 0 0 15 17.75L15 17.25A0.25 0.25 0 0 0 14.75 17L14.25 17A0.25 0.25 0 0 0 14 17.25ZM16 17.25L16 18.75A0.25 0.25 0 0 0 16.25 19L16.75 19A0.25 0.25 0 0 0 17 18.75L17 17.25A0.25 0.25 0 0 0 16.75 17L16.25 17A0.25 0.25 0 0 0 16 17.25ZM14 19.25L14 19.75A0.25 0.25 0 0 0 14.25 20L14.75 20A0.25 0.25 0 0 0 15 19.75L15 19.25A0.25 0.25 0 0 0 14.75 19L14.25 19A0.25 0.25 0 0 0 14 19.25ZM20 20.25L20 20.75A0.25 0.25 0 0 0 20.25 21L20.75 21A0.25 0.25 0 0 0 21 20.75L21 20.25A0.25 0.25 0 0 0 20.75 20L20.25 20A0.25 0.25 0 0 0 20 20.25ZM0 0.25L0 6.75A0.25 0.25 0 0 0 0.25 7L6.75 7A0.25 0.25 0 0 0 7 6.75L7 0.25A0.25 0.25 0 0 0 6.75 0L0.25 0A0.25 0.25 0 0 0 0 0.25ZM1 1.25L1 5.75A0.25 0.25 0 0 0 1.25 6L5.75 6A0.25 0.25 0 0 0 6 5.75L6 1.25A0.25 0.25 0 0 0 5.75 1L1.25 1A0.25 0.25 0 0 0 1 1.25ZM2 2.25L2 4.75A0.25 0.25 0 0 0 2.25 5L4.75 5A0.25 0.25 0 0 0 5 4.75L5 2.25A0.25 0.25 0 0 0 4.75 2L2.25 2A0.25 0.25 0 0 0 2 2.25ZM14 0.25L14 6.75A0.25 0.25 0 0 0 14.25 7L20.75 7A0.25 0.25 0 0 0 21 6.75L21 0.25A0.25 0.25 0 0 0 20.75 0L14.25 0A0.25 0.25 0 0 0 14 0.25ZM15 1.25L15 5.75A0.25 0.25 0 0 0 15.25 6L19.75 6A0.25 0.25 0 0 0 20 5.75L20 1.25A0.25 0.25 0 0 0 19.75 1L15.25 1A0.25 0.25 0 0 0 15 1.25ZM16 2.25L16 4.75A0.25 0.25 0 0 0 16.25 5L18.75 5A0.25 0.25 0 0 0 19 4.75L19 2.25A0.25 0.25 0 0 0 18.75 2L16.25 2A0.25 0.25 0 0 0 16 2.25ZM0 14.25L0 20.75A0.25 0.25 0 0 0 0.25 21L6.75 21A0.25 0.25 0 0 0 7 20.75L7 14.25A0.25 0.25 0 0 0 6.75 14L0.25 14A0.25 0.25 0 0 0 0 14.25ZM1 15.25L1 19.75A0.25 0.25 0 0 0 1.25 20L5.75 20A0.25 0.25 0 0 0 6 19.75L6 15.25A0.25 0.25 0 0 0 5.75 15L1.25 15A0.25 0.25 0 0 0 1 15.25ZM2 16.25L2 18.75A0.25 0.25 0 0 0 2.25 19L4.75 19A0.25 0.25 0 0 0 5 18.75L5 16.25A0.25 0.25 0 0 0 4.75 16L2.25 16A0.25 0.25 0 0 0 2 16.25Z" fill="#ffffff"/></g></g></svg>
